<?xml version="1.0" encoding="UTF-8"?>
<svg id="Layer_1" data-name="Layer 1" xmlns="http://www.w3.org/2000/svg" viewBox="0 0 240.76 45.23">
  <defs>
    <style>
      .cls-1 {
        fill: #4f2170;
      }

      .cls-1, .cls-2, .cls-3 {
        stroke-width: 0px;
      }

      .cls-2 {
        fill: #333;
      }

      .cls-3 {
        fill: #fc0;
      }
    </style>
  </defs>
  <path class="cls-3" d="m240.76,45.12V0H27.42s-9.46,0-9.46,0c-4.58.24-6.07,5.05-8.94,9.16-2.26,3.24-4.73,7.11-7.31,10.32-.97,1.21-1.86,2.46-1.69,4.17.14,1.37.92,2.47,1.66,3.48,3.65,5.01,7.05,10.31,10.17,15.86.32.56.65,1.15,1.12,1.5,1.46,1.08,5,.64,5,.64h9.35s213.42-.03,213.42-.03Z"/>
  <g>
    <path class="cls-2" d="m28.33,21.22c-.58-.3-1.03-.73-1.34-1.27-.32-.55-.47-1.17-.47-1.89v-.57c0-.07.02-.12.07-.17.05-.05.1-.07.17-.07h2.27c.07,0,.12.02.17.07.04.05.07.1.07.17v.43c0,.41.11.74.32.99.21.25.47.38.79.38s.58-.12.79-.36c.21-.24.32-.55.32-.93s-.13-.73-.4-1.02c-.26-.28-.78-.7-1.54-1.25-.66-.47-1.19-.9-1.6-1.26-.41-.37-.76-.82-1.05-1.36-.29-.54-.43-1.17-.43-1.88,0-1.12.35-2.01,1.05-2.69.7-.67,1.62-1.01,2.77-1.01s2.09.35,2.79,1.05c.7.7,1.06,1.61,1.06,2.74v.47c0,.07-.02.12-.07.17-.05.05-.1.07-.17.07h-2.27c-.07,0-.12-.02-.17-.07s-.07-.1-.07-.17v-.53c0-.41-.1-.73-.31-.98-.2-.24-.47-.37-.8-.37s-.57.12-.77.34c-.2.23-.3.55-.3.96s.12.74.38,1.05.74.72,1.48,1.26c.82.61,1.43,1.1,1.85,1.47.42.38.74.79.97,1.24s.35,1,.35,1.63c0,1.16-.36,2.08-1.07,2.76s-1.65,1.03-2.8,1.03c-.76,0-1.43-.15-2.01-.45Z"/>
    <path class="cls-2" d="m36.45,20.61c-.72-.71-1.09-1.66-1.09-2.84v-6.32c0-1.19.36-2.13,1.09-2.84.72-.71,1.69-1.07,2.9-1.07s2.18.36,2.91,1.07,1.1,1.66,1.1,2.84v6.32c0,1.18-.37,2.13-1.1,2.84s-1.7,1.07-2.91,1.07-2.18-.36-2.9-1.07Zm3.79-1.71c.22-.26.34-.59.34-1.02v-6.56c0-.42-.11-.76-.34-1.02s-.52-.38-.89-.38-.66.13-.88.38c-.22.26-.33.6-.33,1.02v6.56c0,.42.11.76.33,1.02.22.26.51.39.88.39s.67-.13.89-.39Z"/>
    <path class="cls-2" d="m51.52,7.7h2.29c.07,0,.12.02.17.07.05.05.07.1.07.17v13.35c0,.07-.02.12-.07.17s-.1.07-.17.07h-2.31c-.07,0-.12-.02-.17-.07-.05-.05-.07-.1-.07-.17v-8.87c0-.05-.01-.08-.04-.08s-.05.02-.08.06l-1.54,2.73c-.07.11-.12.16-.16.16s-.09-.05-.16-.16l-1.54-2.73s-.05-.06-.08-.06-.04.03-.04.08v8.87c0,.07-.02.12-.07.17s-.1.07-.17.07h-2.31c-.07,0-.12-.02-.17-.07s-.07-.1-.07-.17V7.93c0-.07.02-.12.07-.17.05-.05.1-.07.17-.07h2.27c.13,0,.23.05.3.16l1.76,3.14c.04.05.08.05.12,0l1.7-3.14c.05-.1.15-.16.3-.16Z"/>
    <path class="cls-2" d="m62.9,10.02s-.1.07-.17.07h-4.13c-.07,0-.1.03-.1.1v3.12c0,.07.03.1.1.1h2.37c.07,0,.12.02.17.07.05.05.07.1.07.17v1.92c0,.07-.02.12-.07.17s-.1.07-.17.07h-2.37c-.07,0-.1.03-.1.1v3.14c0,.07.03.1.1.1h4.13c.07,0,.12.02.17.07s.07.1.07.17v1.92c0,.07-.02.12-.07.17s-.1.07-.17.07h-6.77c-.07,0-.12-.02-.17-.07s-.07-.1-.07-.17V7.93c0-.07.02-.12.07-.17.05-.05.1-.07.17-.07h6.77c.07,0,.12.02.17.07.05.05.07.1.07.17v1.92c0,.07-.02.12-.07.17Z"/>
    <path class="cls-2" d="m72.2,7.77s.07.1.07.17v1.92c0,.07-.02.12-.07.17-.05.05-.1.07-.17.07h-2.47c-.07,0-.1.03-.1.1v11.1c0,.07-.02.12-.07.17-.05.05-.1.07-.17.07h-2.31c-.07,0-.12-.02-.17-.07-.05-.05-.07-.1-.07-.17v-11.1c0-.07-.03-.1-.1-.1h-2.37c-.07,0-.12-.02-.17-.07s-.07-.1-.07-.17v-1.92c0-.07.02-.12.07-.17s.1-.07.17-.07h7.82c.07,0,.12.02.17.07Z"/>
    <path class="cls-2" d="m78.64,7.77s.1-.07.17-.07h2.31c.07,0,.12.02.17.07.05.05.07.1.07.17v13.35c0,.07-.02.12-.07.17s-.1.07-.17.07h-2.31c-.07,0-.12-.02-.17-.07s-.07-.1-.07-.17v-5.39c0-.07-.03-.1-.1-.1h-1.97c-.07,0-.1.03-.1.1v5.39c0,.07-.02.12-.07.17s-.1.07-.17.07h-2.31c-.07,0-.12-.02-.17-.07-.05-.05-.07-.1-.07-.17V7.93c0-.07.02-.12.07-.17.04-.05.1-.07.17-.07h2.31c.07,0,.12.02.17.07.05.05.07.1.07.17v5.37c0,.07.03.1.1.1h1.97c.07,0,.1-.03.1-.1v-5.37c0-.07.02-.12.07-.17Z"/>
    <path class="cls-2" d="m83.16,21.45s-.07-.1-.07-.17V7.93c0-.07.02-.12.07-.17s.1-.07.17-.07h2.31c.07,0,.12.02.17.07.04.05.07.1.07.17v13.35c0,.07-.02.12-.07.17-.05.05-.1.07-.17.07h-2.31c-.07,0-.12-.02-.17-.07Z"/>
    <path class="cls-2" d="m93.35,7.77s.1-.07.17-.07h2.29c.07,0,.12.02.17.07.05.05.07.1.07.17v13.35c0,.07-.02.12-.07.17-.05.05-.1.07-.17.07h-2.61c-.13,0-.22-.07-.26-.2l-2.45-7.64s-.04-.06-.07-.05c-.03,0-.05.03-.05.07l.02,7.58c0,.07-.02.12-.07.17s-.1.07-.17.07h-2.29c-.07,0-.12-.02-.17-.07s-.07-.1-.07-.17V7.93c0-.07.02-.12.07-.17.05-.05.1-.07.17-.07h2.59c.13,0,.22.07.26.2l2.47,7.64s.04.06.07.05c.03,0,.05-.03.05-.07l-.02-7.58c0-.07.02-.12.07-.17Z"/>
    <path class="cls-2" d="m98.66,20.66c-.72-.68-1.08-1.58-1.08-2.71v-6.67c0-1.13.36-2.04,1.08-2.72.72-.68,1.67-1.02,2.85-1.02s2.14.34,2.86,1.03c.72.68,1.09,1.59,1.09,2.73v.75c0,.07-.02.12-.07.17-.05.05-.1.07-.17.07h-2.31c-.07,0-.12-.02-.17-.07-.05-.05-.07-.1-.07-.17v-.79c0-.39-.11-.71-.32-.96-.21-.24-.49-.37-.85-.37s-.62.12-.83.37c-.21.24-.32.56-.32.96v6.71c0,.39.1.71.32.96.21.24.49.37.83.37s.64-.12.85-.37c.21-.24.32-.56.32-.96v-1.58c0-.07-.03-.1-.1-.1h-.87c-.07,0-.12-.02-.17-.07-.05-.05-.07-.1-.07-.17v-1.76c0-.07.02-.12.07-.17.05-.05.1-.07.17-.07h3.51c.07,0,.12.02.17.07s.07.1.07.17v3.65c0,1.13-.36,2.04-1.09,2.71-.72.68-1.68,1.02-2.86,1.02s-2.14-.34-2.85-1.02Z"/>
    <path class="cls-2" d="m31.07,24.59s.1-.07.17-.07h2.29c.07,0,.12.02.17.07s.07.1.07.17v13.35c0,.07-.02.12-.07.17s-.1.07-.17.07h-2.61c-.13,0-.22-.07-.26-.2l-2.45-7.64s-.04-.06-.07-.05c-.03,0-.05.03-.05.07l.02,7.58c0,.07-.02.12-.07.17-.05.05-.1.07-.17.07h-2.29c-.07,0-.12-.02-.17-.07-.05-.05-.07-.1-.07-.17v-13.35c0-.07.02-.12.07-.17.05-.05.1-.07.17-.07h2.59c.13,0,.22.07.26.2l2.47,7.64s.04.06.07.05c.03,0,.05-.03.05-.07l-.02-7.58c0-.07.02-.12.07-.17Z"/>
    <path class="cls-2" d="m36.39,37.44c-.72-.71-1.09-1.66-1.09-2.84v-6.32c0-1.18.36-2.13,1.09-2.84.72-.71,1.69-1.07,2.9-1.07s2.18.36,2.91,1.07c.73.71,1.1,1.66,1.1,2.84v6.32c0,1.18-.37,2.13-1.1,2.84-.73.71-1.7,1.07-2.91,1.07s-2.18-.36-2.9-1.07Zm3.79-1.71c.22-.26.34-.6.34-1.02v-6.56c0-.42-.11-.76-.34-1.02-.22-.26-.52-.38-.89-.38s-.66.13-.88.38c-.22.26-.33.6-.33,1.02v6.56c0,.42.11.76.33,1.02.22.26.51.38.88.38s.67-.13.89-.38Z"/>
    <path class="cls-2" d="m52.67,24.59s.07.1.07.17v1.92c0,.07-.02.12-.07.17-.05.05-.1.07-.17.07h-2.47c-.07,0-.1.03-.1.1v11.1c0,.07-.02.12-.07.17-.05.05-.1.07-.17.07h-2.31c-.07,0-.12-.02-.17-.07-.05-.05-.07-.1-.07-.17v-11.1c0-.07-.03-.1-.1-.1h-2.37c-.07,0-.12-.02-.17-.07s-.07-.1-.07-.17v-1.92c0-.07.02-.12.07-.17.05-.05.1-.07.17-.07h7.82c.07,0,.12.02.17.07Z"/>
    <path class="cls-2" d="m63.21,38.15l-1.52-5.45c-.03-.05-.06-.08-.1-.08h-.67c-.07,0-.1.03-.1.1v5.39c0,.07-.02.12-.07.17-.05.05-.1.07-.17.07h-2.31c-.07,0-.12-.02-.17-.07-.05-.05-.07-.1-.07-.17v-13.35c0-.07.02-.12.07-.17.05-.05.1-.07.17-.07h3.99c.72,0,1.37.17,1.94.52.57.35,1,.84,1.31,1.47.31.63.46,1.36.46,2.17s-.15,1.46-.45,2.05c-.3.59-.71,1.05-1.23,1.38-.03.01-.05.03-.06.05-.01.02-.01.04,0,.07l1.82,5.83.02.08c0,.13-.07.2-.22.2h-2.37c-.15,0-.24-.07-.28-.2Zm-2.39-11.14v3.38c0,.07.03.1.1.1h.89c.41,0,.74-.16,1-.48.26-.32.38-.75.38-1.29s-.13-.99-.38-1.31c-.26-.32-.59-.48-1-.48h-.89c-.07,0-.1.03-.1.1Z"/>
    <path class="cls-2" d="m67.4,38.28s-.07-.1-.07-.17v-13.35c0-.07.02-.12.07-.17.04-.05.1-.07.17-.07h2.31c.07,0,.12.02.17.07.05.05.07.1.07.17v13.35c0,.07-.02.12-.07.17-.05.05-.1.07-.17.07h-2.31c-.07,0-.12-.02-.17-.07Z"/>
    <path class="cls-2" d="m72.75,37.49c-.72-.68-1.08-1.58-1.08-2.71v-6.67c0-1.13.36-2.04,1.08-2.72.72-.68,1.67-1.02,2.85-1.02s2.14.34,2.86,1.03c.72.68,1.09,1.59,1.09,2.72v.75c0,.07-.02.12-.07.17-.05.05-.1.07-.17.07h-2.31c-.07,0-.12-.02-.17-.07-.05-.05-.07-.1-.07-.17v-.79c0-.4-.11-.71-.32-.96-.21-.24-.49-.37-.85-.37s-.62.12-.83.37c-.21.24-.32.56-.32.96v6.71c0,.39.11.71.32.96s.49.37.83.37.64-.12.85-.37c.21-.24.32-.56.32-.96v-1.58c0-.07-.03-.1-.1-.1h-.87c-.07,0-.12-.02-.17-.07-.05-.05-.07-.1-.07-.17v-1.76c0-.07.02-.12.07-.17.05-.05.1-.07.17-.07h3.51c.07,0,.12.02.17.07s.07.1.07.17v3.65c0,1.13-.36,2.04-1.09,2.71-.72.68-1.68,1.02-2.86,1.02s-2.14-.34-2.85-1.02Z"/>
    <path class="cls-2" d="m86.12,24.59s.1-.07.17-.07h2.31c.07,0,.12.02.17.07.05.05.07.1.07.17v13.35c0,.07-.02.12-.07.17-.05.05-.1.07-.17.07h-2.31c-.07,0-.12-.02-.17-.07-.05-.05-.07-.1-.07-.17v-5.39c0-.07-.03-.1-.1-.1h-1.98c-.07,0-.1.03-.1.1v5.39c0,.07-.02.12-.07.17-.05.05-.1.07-.17.07h-2.31c-.07,0-.12-.02-.17-.07-.05-.05-.07-.1-.07-.17v-13.35c0-.07.02-.12.07-.17.05-.05.1-.07.17-.07h2.31c.07,0,.12.02.17.07.04.05.07.1.07.17v5.37c0,.07.03.1.1.1h1.98c.07,0,.1-.03.1-.1v-5.37c0-.07.02-.12.07-.17Z"/>
    <path class="cls-2" d="m98.41,24.59s.07.1.07.17v1.92c0,.07-.02.12-.07.17s-.1.07-.17.07h-2.47c-.07,0-.1.03-.1.1v11.1c0,.07-.02.12-.07.17s-.1.07-.17.07h-2.31c-.07,0-.12-.02-.17-.07-.05-.05-.07-.1-.07-.17v-11.1c0-.07-.03-.1-.1-.1h-2.37c-.07,0-.12-.02-.17-.07-.05-.05-.07-.1-.07-.17v-1.92c0-.07.02-.12.07-.17.05-.05.1-.07.17-.07h7.82c.07,0,.12.02.17.07Z"/>
    <path class="cls-2" d="m101.69,33.89s-.07-.1-.07-.17v-.63c0-.66.13-1.19.41-1.59.27-.4.66-.83,1.17-1.27.42-.37.73-.69.93-.96.2-.27.3-.6.3-1,0-.42-.1-.76-.31-1.02-.2-.26-.47-.39-.8-.39-.38,0-.68.14-.91.41-.22.27-.34.63-.34,1.08v.32c0,.15-.08.22-.24.22l-2.31-.1c-.07,0-.12-.02-.17-.07-.05-.05-.07-.1-.07-.17v-.2c0-.79.17-1.49.51-2.1.34-.61.82-1.09,1.44-1.42.62-.34,1.33-.5,2.13-.5,1.17,0,2.11.35,2.8,1.06.7.71,1.05,1.64,1.05,2.79,0,.58-.08,1.08-.25,1.49-.17.41-.36.75-.59,1.02s-.53.55-.9.87c-.38.33-.66.61-.84.85-.18.24-.27.53-.27.87v.45c0,.07-.02.12-.07.17s-.1.07-.17.07h-2.29c-.07,0-.12-.02-.17-.07Zm.21,4.06c-.29-.29-.43-.67-.43-1.13s.14-.83.43-1.12c.29-.28.66-.42,1.11-.42s.84.14,1.13.43c.29.29.43.66.43,1.11s-.14.82-.43,1.12c-.29.3-.67.44-1.13.44s-.82-.14-1.11-.43Z"/>
  </g>
  <g>
    <path class="cls-2" d="m122.71,11.41h-2.37l-1.24,8.83h-2.4l1.24-8.83h-2.37l.28-1.84h7.13l-.27,1.84Z"/>
    <path class="cls-2" d="m128.08,18.07l.68,1.48c-.9.58-1.91.84-2.99.84-1.99,0-3.07-1.11-3.07-3.05,0-2.67,1.53-4.74,4.15-4.74,1.63,0,2.52.81,2.52,2.15,0,2-1.67,2.74-3.66,2.74-.3,0-.59-.02-.88-.06.02.8.33,1.24,1.2,1.24s1.48-.25,2.04-.61Zm-3.13-1.88c.24.02.47.03.68.03.83,0,1.53-.42,1.53-1.19,0-.38-.22-.65-.68-.65-.81,0-1.32.77-1.53,1.81Z"/>
    <path class="cls-2" d="m130.11,18.63c0-.12,0-.13.03-.36l1.3-9.26c.44-.18.89-.33,1.35-.33.53,0,.83.24.83.82,0,.06,0,.07-.01.19l-1.14,8.3c-.01.09-.03.21-.03.25,0,.24.13.33.37.33s.46-.04.59-.1l.18,1.5c-.55.33-1.07.43-1.63.43-1.2,0-1.84-.65-1.84-1.76Z"/>
    <path class="cls-2" d="m134.52,18.63c0-.12,0-.13.03-.36l1.3-9.26c.44-.18.89-.33,1.35-.33.53,0,.83.24.83.82,0,.06,0,.07-.02.19l-1.14,8.3c-.01.09-.03.21-.03.25,0,.24.13.33.37.33s.46-.04.59-.1l.18,1.5c-.55.33-1.07.43-1.63.43-1.2,0-1.84-.65-1.84-1.76Z"/>
    <path class="cls-2" d="m148.28,18.9c-.01.12-.03.28-.03.43,0,.25.03.5.15.68-.52.24-.96.38-1.48.38s-.89-.37-.89-1.02c0-.09,0-.12.01-.27l.03-.33c-.68,1.14-1.45,1.61-2.42,1.61-1.19,0-1.82-.71-1.82-2.06,0-.21.01-.44.04-.7l.68-4.71c.44-.18.92-.33,1.38-.33.55,0,.83.3.83.81,0,.06,0,.07-.02.19l-.53,3.57c-.03.19-.04.34-.04.47,0,.5.12.92.64.92.86,0,1.35-.76,1.69-3.08l.37-2.56c.46-.18.9-.33,1.36-.33.53,0,.83.3.83.81,0,.06,0,.07-.02.19l-.77,5.29Z"/>
    <path class="cls-2" d="m156,13.5l-.95,1.21c-.56-.34-1.07-.52-1.69-.52-.52,0-.92.25-.92.68,0,.36.36.55.89.74,1.07.38,2.19.86,2.19,2.15,0,1.75-1.48,2.62-3.27,2.62-1.14,0-2.12-.28-2.87-.95l.74-1.36c.67.53,1.6.68,2.09.68.56,0,1.05-.21,1.05-.68,0-.4-.5-.61-1.04-.79-.93-.31-2.02-.81-2.02-2.06,0-1.69,1.32-2.64,3.11-2.64,1.07,0,1.99.33,2.68.9Z"/>
    <path class="cls-2" d="m166.06,19.33c0,.25.03.5.15.68-.52.24-.96.38-1.48.38s-.89-.37-.89-1.02c0-.09,0-.12.01-.31v-.19c-.64,1.1-1.38,1.53-2.33,1.53-1.04,0-2.16-.83-2.16-2.61,0-2.92,1.64-5.19,4.56-5.19.62,0,2.1.06,3.07.15l-.9,6.15c-.01.12-.03.28-.03.43Zm-1.76-3.81l.18-1.2c-.27-.01-.5-.01-.71-.01-1.35,0-2,1.41-2,2.87,0,.89.25,1.41.86,1.41.68,0,1.33-.75,1.67-3.07Z"/>
    <path class="cls-2" d="m175.14,15.21c0,2.92-1.66,5.19-4.56,5.19-.64,0-2.09-.06-3.07-.15l1.62-11.23c.44-.18.87-.33,1.35-.33.53,0,.82.3.82.82,0,.06,0,.07-.01.19l-.62,4.39c.65-1.07,1.38-1.48,2.31-1.48,1.04,0,2.18.83,2.18,2.61Zm-2.4.61c0-.89-.25-1.41-.86-1.41-.68,0-1.39.76-1.7,3.07l-.16,1.2c.27.02.5.02.71.02,1.36,0,2.02-1.41,2.02-2.88Z"/>
    <path class="cls-2" d="m175.92,17.21c0-2.71,1.53-4.61,4.19-4.61,2.09,0,3.21,1.19,3.21,3.21,0,2.71-1.53,4.58-4.15,4.58-2.13,0-3.26-1.18-3.26-3.19Zm5.11-1.35c0-.92-.39-1.45-1.16-1.45-1.13,0-1.66,1.47-1.66,2.71,0,.93.42,1.45,1.14,1.45,1.13,0,1.67-1.42,1.67-2.71Z"/>
    <path class="cls-2" d="m190.72,18.9c-.01.12-.03.28-.03.43,0,.25.03.5.15.68-.52.24-.96.38-1.48.38s-.89-.37-.89-1.02c0-.09,0-.12.01-.27l.03-.33c-.68,1.14-1.45,1.61-2.42,1.61-1.19,0-1.82-.71-1.82-2.06,0-.21.01-.44.04-.7l.68-4.71c.44-.18.92-.33,1.38-.33.55,0,.83.3.83.81,0,.06,0,.07-.01.19l-.53,3.57c-.03.19-.04.34-.04.47,0,.5.12.92.64.92.86,0,1.35-.76,1.69-3.08l.37-2.56c.46-.18.9-.33,1.36-.33.53,0,.83.3.83.81,0,.06,0,.07-.01.19l-.77,5.29Z"/>
    <path class="cls-2" d="m195.26,17.5c-.01.13-.01.22-.01.31,0,.52.21.76.62.76.37,0,.79-.1,1.05-.25l.15,1.69c-.62.27-1.26.38-1.93.38-1.45,0-2.25-.77-2.25-2.09,0-.15.01-.33.04-.52l.45-3.32h-.99l.24-1.72h1.08l.24-1.7c.42-.18.86-.3,1.2-.3.59,0,.92.39.92.95,0,.06,0,.07-.01.18l-.13.88h1.93l-.22,1.72h-1.96l-.4,3.04Z"/>
    <path class="cls-2" d="m203.29,18.9c-.01.12-.03.28-.03.43,0,.25.03.5.15.68-.52.24-.95.38-1.48.38-.65,0-.96-.37-.96-1.01,0-.06,0-.12.01-.24l.87-6.4h2.3l-.86,6.15Zm-1.21-8.34c0-.81.49-1.39,1.36-1.39.73,0,1.16.38,1.16,1.04,0,.83-.47,1.39-1.35,1.39-.74,0-1.17-.38-1.17-1.04Z"/>
    <path class="cls-2" d="m207.84,17.5c-.01.13-.01.22-.01.31,0,.52.21.76.62.76.37,0,.79-.1,1.05-.25l.15,1.69c-.62.27-1.26.38-1.93.38-1.45,0-2.25-.77-2.25-2.09,0-.15.02-.33.04-.52l.44-3.32h-.99l.24-1.72h1.08l.24-1.7c.41-.18.86-.3,1.2-.3.59,0,.92.39.92.95,0,.06,0,.07-.02.18l-.13.88h1.93l-.22,1.72h-1.96l-.4,3.04Z"/>
    <path class="cls-2" d="m115.24,29.39v-5.49c.14-.08.27-.11.41-.11.3,0,.5.21.5.54v5.07h-.91Z"/>
    <path class="cls-2" d="m118.46,24.84v.71h1.21v.66h-1.21v3.18h-.87v-3.18h-.6v-.66h.6v-.88c0-.8.48-1.27,1.31-1.27.38,0,.71.06,1,.18l-.12.65c-.19-.09-.42-.14-.65-.14-.44,0-.67.28-.67.74Z"/>
    <path class="cls-2" d="m125.5,25.61l-1.59,4.31c-.25.69-.7,1.18-1.24,1.31l-.35-.57c.36-.09.7-.42.87-.88l.15-.42c-.16-.05-.26-.16-.32-.33l-1.3-3.42c.12-.08.31-.14.49-.14.21,0,.42.1.54.43l.63,1.75.3,1.06.28-1.06.72-2.18.81.14Z"/>
    <path class="cls-2" d="m125.99,27.47c0-1.25.72-2,1.95-2s1.95.74,1.95,2-.72,2-1.95,2-1.95-.74-1.95-2Zm3.02,0c0-.81-.4-1.3-1.07-1.3s-1.07.48-1.07,1.3.4,1.3,1.07,1.3,1.07-.48,1.07-1.3Z"/>
    <path class="cls-2" d="m134.15,25.94v3.42c-.15.07-.3.11-.45.11-.25,0-.4-.21-.4-.54v-.12c-.3.45-.76.66-1.28.66-.82,0-1.3-.52-1.3-1.41v-2.46c.15-.07.3-.12.45-.12.26,0,.42.18.42.46v1.95c0,.55.25.88.7.88.59,0,1-.35,1-1.15v-2.03c.15-.07.3-.12.45-.12.26,0,.42.18.42.46Z"/>
    <path class="cls-2" d="m139.67,25.85l-.33.51c-.33-.17-.66-.26-1.04-.26s-.63.14-.63.41c0,.34.37.48.81.62.64.21,1.3.45,1.3,1.19s-.58,1.14-1.57,1.14c-.61,0-1.13-.11-1.52-.41l.24-.56c.35.25.84.34,1.24.34.48,0,.76-.15.76-.45s-.39-.43-.83-.57c-.59-.18-1.28-.45-1.28-1.21,0-.71.56-1.14,1.48-1.14.51,0,.97.12,1.37.38Z"/>
    <path class="cls-2" d="m143.42,28.48l.35.55c-.46.29-.97.43-1.57.43-1.13,0-1.8-.7-1.8-1.89,0-1.32.72-2.1,1.94-2.1.91,0,1.44.47,1.44,1.25s-.66,1.22-1.77,1.22c-.25,0-.5-.02-.74-.07.08.58.4.92.99.92.47,0,.85-.11,1.17-.32Zm-2.17-1.12c.25.04.51.05.75.05.59,0,.94-.25.94-.65,0-.38-.25-.61-.68-.61-.58,0-.94.45-1,1.21Z"/>
    <path class="cls-2" d="m147.47,28.48l.34.55c-.46.29-.97.43-1.57.43-1.13,0-1.8-.7-1.8-1.89,0-1.32.72-2.1,1.94-2.1.91,0,1.43.47,1.43,1.25s-.66,1.22-1.77,1.22c-.25,0-.5-.02-.75-.07.08.58.4.92.99.92.47,0,.85-.11,1.17-.32Zm-2.17-1.12c.25.04.51.05.75.05.59,0,.94-.25.94-.65,0-.38-.25-.61-.68-.61-.58,0-.94.45-1,1.21Z"/>
    <path class="cls-2" d="m153.16,25.85l-.33.51c-.33-.17-.66-.26-1.04-.26s-.63.14-.63.41c0,.34.37.48.81.62.64.21,1.3.45,1.3,1.19s-.58,1.14-1.57,1.14c-.61,0-1.14-.11-1.52-.41l.24-.56c.35.25.84.34,1.24.34.48,0,.76-.15.76-.45s-.39-.43-.83-.57c-.59-.18-1.28-.45-1.28-1.21,0-.71.56-1.14,1.48-1.14.51,0,.97.12,1.37.38Z"/>
    <path class="cls-2" d="m153.89,27.47c0-1.25.72-2,1.95-2s1.95.74,1.95,2-.72,2-1.95,2-1.95-.74-1.95-2Zm3.02,0c0-.81-.4-1.3-1.07-1.3s-1.07.48-1.07,1.3.4,1.3,1.07,1.3,1.07-.48,1.07-1.3Z"/>
    <path class="cls-2" d="m164.19,26.89v2.5h-.87v-2.33c0-.55-.19-.88-.55-.88-.53,0-.91.35-.91,1.15v2.06h-.87v-2.33c0-.55-.19-.88-.55-.88-.53,0-.91.35-.91,1.15v2.06h-.87v-3.8c.15-.07.3-.12.45-.12.25,0,.4.21.4.54v.11c.28-.45.71-.64,1.21-.64s.84.23,1.01.65c.32-.45.75-.65,1.32-.65.72,0,1.15.52,1.15,1.41Z"/>
    <path class="cls-2" d="m168.04,28.48l.34.55c-.46.29-.97.43-1.57.43-1.13,0-1.8-.7-1.8-1.89,0-1.32.72-2.1,1.94-2.1.91,0,1.44.47,1.44,1.25s-.66,1.22-1.77,1.22c-.25,0-.5-.02-.75-.07.08.58.4.92.99.92.47,0,.85-.11,1.17-.32Zm-2.17-1.12c.25.04.51.05.75.05.59,0,.94-.25.94-.65,0-.38-.25-.61-.68-.61-.58,0-.94.45-1,1.21Z"/>
    <path class="cls-2" d="m171.66,29.28c-.27.12-.57.18-.92.18-.78,0-1.24-.47-1.24-1.27v-1.99h-.6v-.66h.62v-.92c.15-.07.3-.12.45-.12.25,0,.4.18.4.46v.58h1.25v.66h-1.25v1.82c0,.46.21.74.61.74.2,0,.4-.05.57-.14l.12.65Z"/>
    <path class="cls-2" d="m175.85,26.89v2.5h-.87v-2.33c0-.55-.25-.88-.7-.88-.64,0-1.07.35-1.07,1.15v2.06h-.87v-5.87c.15-.07.3-.11.45-.11.26,0,.42.18.42.46v2.26c.31-.45.79-.64,1.34-.64.82,0,1.3.52,1.3,1.41Z"/>
    <path class="cls-2" d="m176.81,24.37c0-.31.19-.48.51-.48s.51.18.51.48-.19.48-.51.48-.51-.18-.51-.48Zm.08,5.02h.87v-3.84h-.87v3.84Z"/>
    <path class="cls-2" d="m182.32,26.89v2.5h-.87v-2.33c0-.55-.25-.88-.7-.88-.64,0-1.07.35-1.07,1.15v2.06h-.87v-3.8c.15-.07.3-.12.45-.12.25,0,.4.21.4.54v.14c.31-.46.8-.67,1.36-.67.82,0,1.3.52,1.3,1.41Z"/>
    <path class="cls-2" d="m186.83,25.55v4.11c0,.99-.62,1.57-1.68,1.57-.65,0-1.19-.14-1.69-.43l.34-.55c.35.21.77.31,1.2.31.68,0,.96-.39.96-1.07v-.68c-.32.45-.81.65-1.31.65-.93,0-1.5-.71-1.5-1.92,0-1.3.76-2.07,2.05-2.07.41,0,1.11.03,1.63.08Zm-.87.6c-.25,0-.49-.01-.69-.01-.77,0-1.24.52-1.24,1.41,0,.77.32,1.22.91,1.22.51,0,1.01-.35,1.01-1.15v-1.47Z"/>
    <path class="cls-2" d="m193.16,26.89v2.5h-.87v-2.33c0-.55-.25-.88-.7-.88-.64,0-1.08.35-1.08,1.15v2.06h-.87v-3.8c.15-.07.3-.12.45-.12.25,0,.4.21.4.54v.14c.31-.46.8-.67,1.36-.67.82,0,1.3.52,1.3,1.41Z"/>
    <path class="cls-2" d="m193.99,27.47c0-1.25.72-2,1.95-2s1.95.74,1.95,2-.72,2-1.95,2-1.95-.74-1.95-2Zm3.02,0c0-.81-.4-1.3-1.07-1.3s-1.07.48-1.07,1.3.4,1.3,1.07,1.3,1.07-.48,1.07-1.3Z"/>
    <path class="cls-2" d="m201.16,29.28c-.27.12-.57.18-.92.18-.78,0-1.24-.47-1.24-1.27v-1.99h-.6v-.66h.62v-.92c.15-.07.3-.12.45-.12.25,0,.4.18.4.46v.58h1.25v.66h-1.25v1.82c0,.46.21.74.61.74.2,0,.4-.05.57-.14l.12.65Z"/>
    <path class="cls-2" d="m209.13,25.61l-1.25,3.78h-.89l-.69-2.28-.13-.58-.12.55-.66,2.3h-.91l-1.27-3.78c.12-.08.31-.14.49-.14.22,0,.44.1.54.43l.58,1.94.18.84.21-.88.64-2.19c.09-.08.25-.15.38-.15.19,0,.38.1.48.43l.56,1.92.18.81.21-.84.69-2.33.77.14Z"/>
    <path class="cls-2" d="m209.63,27.47c0-1.25.72-2,1.95-2s1.95.74,1.95,2-.72,2-1.95,2-1.95-.74-1.95-2Zm3.02,0c0-.81-.4-1.3-1.07-1.3s-1.07.48-1.07,1.3.4,1.3,1.07,1.3,1.07-.48,1.07-1.3Z"/>
    <path class="cls-2" d="m216.99,25.6l-.25.79c-.13-.08-.3-.14-.48-.14-.59,0-1,.42-1,1.38v1.76h-.87v-3.8c.15-.07.3-.12.45-.12.25,0,.4.21.4.54v.24c.28-.53.71-.77,1.21-.77.21,0,.4.05.55.12Z"/>
    <path class="cls-2" d="m218.43,23.86v5.53h-.87v-5.87c.15-.07.3-.11.45-.11.26,0,.42.18.42.46Zm2.86,5.46c-.18.1-.35.14-.55.14-.31,0-.49-.1-.68-.31l-1.6-1.79,1.73-1.89.82.14-1.58,1.71,1.87,2Z"/>
    <path class="cls-2" d="m221.72,24.37c0-.31.19-.48.51-.48s.51.18.51.48-.19.48-.51.48-.51-.18-.51-.48Zm.08,5.02h.87v-3.84h-.87v3.84Z"/>
    <path class="cls-2" d="m227.23,26.89v2.5h-.87v-2.33c0-.55-.25-.88-.7-.88-.64,0-1.08.35-1.08,1.15v2.06h-.87v-3.8c.15-.07.3-.12.45-.12.25,0,.4.21.4.54v.14c.31-.46.8-.67,1.36-.67.82,0,1.3.52,1.3,1.41Z"/>
    <path class="cls-2" d="m231.75,25.55v4.11c0,.99-.62,1.57-1.68,1.57-.65,0-1.19-.14-1.69-.43l.35-.55c.35.21.77.31,1.2.31.68,0,.96-.39.96-1.07v-.68c-.32.45-.81.65-1.31.65-.93,0-1.5-.71-1.5-1.92,0-1.3.76-2.07,2.05-2.07.41,0,1.11.03,1.63.08Zm-.87.6c-.25,0-.49-.01-.69-.01-.77,0-1.24.52-1.24,1.41,0,.77.32,1.22.91,1.22.51,0,1.01-.35,1.01-1.15v-1.47Z"/>
    <path class="cls-2" d="m233.8,29.17c0,.55-.25,1.01-.88,1.22l-.14-.25c.4-.15.56-.38.61-.71-.08.02-.18.04-.28.04-.27,0-.42-.18-.42-.5,0-.35.21-.56.55-.56s.55.28.55.76Z"/>
    <path class="cls-2" d="m116.44,37.52c-1.06,0-1.63-.61-1.63-1.65,0-1.34.81-2.39,2-2.39.46,0,1.16.22,1.26,1.12l-.89.28c-.04-.31-.15-.47-.38-.47-.54,0-.78.79-.78,1.4,0,.48.24.75.65.75.32,0,.69-.15.92-.35l.28.88c-.42.3-.97.42-1.42.42Z"/>
    <path class="cls-2" d="m118.44,36.6c0-.06,0-.07.02-.18l.68-4.8c.23-.09.46-.17.7-.17.28,0,.43.12.43.42,0,.03,0,.04,0,.1l-.59,4.3s-.02.11-.02.13c0,.12.07.17.19.17s.24-.02.31-.05l.09.77c-.28.17-.55.22-.84.22-.62,0-.95-.34-.95-.91Z"/>
    <path class="cls-2" d="m121.89,36.74c0,.06-.02.15-.02.22,0,.13.02.26.08.35-.27.12-.49.2-.77.2-.34,0-.5-.19-.5-.52,0-.03,0-.06,0-.12l.45-3.32h1.19l-.45,3.19Zm-.63-4.32c0-.42.25-.72.71-.72.38,0,.6.2.6.54,0,.43-.25.72-.7.72-.38,0-.61-.2-.61-.54Z"/>
    <path class="cls-2" d="m124.34,37.52c-1.06,0-1.63-.61-1.63-1.65,0-1.34.81-2.39,2-2.39.46,0,1.16.22,1.26,1.12l-.89.28c-.04-.31-.15-.47-.38-.47-.54,0-.78.79-.78,1.4,0,.48.24.75.65.75.32,0,.69-.15.92-.35l.28.88c-.42.3-.97.42-1.42.42Z"/>
    <path class="cls-2" d="m128.17,31.97l-.77,5.46h-1.18l.84-5.82c.23-.09.45-.17.7-.17.28,0,.42.15.42.42,0,.03,0,.04,0,.1Zm.8,3.32l1.18,2.07c-.28.13-.51.15-.75.15-.45,0-.64-.15-.78-.4l-.91-1.72,1.53-1.92,1.08.18-1.36,1.63Z"/>
    <path class="cls-2" d="m135.54,36.74c0,.06-.02.15-.02.22,0,.13.02.26.08.35-.27.12-.5.2-.76.2-.35,0-.51-.19-.51-.52,0-.03,0-.06,0-.12l.26-1.73c.02-.1.02-.18.02-.26,0-.27-.08-.47-.35-.47-.48,0-.79.56-.98,1.92l-.15,1.11h-1.18l.84-5.82c.23-.09.45-.17.7-.17.28,0,.42.15.42.42,0,.03,0,.04,0,.1l-.33,2.36c.36-.63.77-.85,1.27-.85.64,0,.98.41.98,1.09,0,.12-.01.24-.03.35l-.26,1.83Z"/>
    <path class="cls-2" d="m139.11,36.31l.35.77c-.47.3-.99.44-1.55.44-1.03,0-1.59-.58-1.59-1.58,0-1.38.79-2.46,2.15-2.46.84,0,1.3.42,1.3,1.11,0,1.04-.87,1.42-1.9,1.42-.15,0-.31,0-.45-.03,0,.42.17.65.62.65s.77-.13,1.06-.32Zm-1.62-.97c.12,0,.25.02.35.02.43,0,.79-.21.79-.61,0-.2-.12-.34-.35-.34-.42,0-.68.4-.79.94Z"/>
    <path class="cls-2" d="m143.19,33.62l-.45,1.03c-.11-.08-.25-.12-.4-.12-.49,0-.76.54-.96,1.95l-.14.97h-1.19l.52-3.81c.22-.09.45-.15.62-.15.31,0,.47.25.47.58,0,.04,0,.06,0,.14v.08c.29-.59.6-.8.99-.8.21,0,.4.06.54.14Z"/>
    <path class="cls-2" d="m145.93,36.31l.35.77c-.47.3-.99.44-1.55.44-1.03,0-1.59-.58-1.59-1.58,0-1.38.79-2.46,2.15-2.46.84,0,1.3.42,1.3,1.11,0,1.04-.87,1.42-1.9,1.42-.15,0-.31,0-.45-.03,0,.42.17.65.62.65.43,0,.77-.13,1.06-.32Zm-1.62-.97c.12,0,.25.02.35.02.43,0,.79-.21.79-.61,0-.2-.12-.34-.35-.34-.42,0-.68.4-.79.94Z"/>
    <path class="cls-2" d="m151.74,33.9l-.33.51c-.33-.17-.66-.26-1.04-.26s-.63.14-.63.41c0,.34.37.48.81.62.64.21,1.3.45,1.3,1.19s-.58,1.14-1.57,1.14c-.61,0-1.14-.12-1.52-.41l.24-.56c.35.25.84.34,1.24.34.48,0,.76-.15.76-.45s-.39-.43-.83-.57c-.59-.18-1.28-.45-1.28-1.21,0-.71.56-1.14,1.48-1.14.51,0,.97.12,1.37.38Z"/>
    <path class="cls-2" d="m152.47,35.52c0-1.25.72-2,1.95-2s1.95.75,1.95,2-.72,2-1.95,2-1.95-.74-1.95-2Zm3.02,0c0-.81-.4-1.3-1.07-1.3s-1.07.48-1.07,1.3.4,1.3,1.07,1.3,1.07-.48,1.07-1.3Z"/>
    <path class="cls-2" d="m164.52,33.66l-1.25,3.78h-.89l-.69-2.28-.13-.58-.12.55-.66,2.3h-.91l-1.27-3.78c.12-.08.31-.14.49-.14.22,0,.44.1.54.43l.58,1.94.18.84.21-.88.64-2.19c.09-.08.25-.15.38-.15.19,0,.38.1.48.43l.56,1.92.18.81.21-.84.69-2.33.77.14Z"/>
    <path class="cls-2" d="m168.04,36.53l.35.55c-.46.29-.97.43-1.57.43-1.13,0-1.8-.7-1.8-1.89,0-1.32.72-2.1,1.94-2.1.91,0,1.44.47,1.44,1.25s-.66,1.22-1.77,1.22c-.25,0-.5-.02-.74-.07.08.58.4.92.99.92.47,0,.85-.11,1.17-.32Zm-2.17-1.12c.25.04.51.05.74.05.59,0,.94-.25.94-.65,0-.38-.25-.61-.68-.61-.58,0-.94.45-1,1.21Z"/>
    <path class="cls-2" d="m172.71,37.52c-1.18,0-1.88-.74-1.88-2s.75-1.99,1.82-1.99c.48,0,1.13.2,1.37.94l-.65.26c-.14-.32-.36-.51-.68-.51-.61,0-.97.48-.97,1.29s.4,1.3,1.06,1.3c.39,0,.81-.14,1.1-.37l.28.63c-.39.3-.9.44-1.44.44Z"/>
    <path class="cls-2" d="m177.89,34.94v2.46c-.15.07-.3.12-.45.12-.25,0-.4-.21-.4-.54v-.15c-.31.48-.78.69-1.27.69-.75,0-1.21-.44-1.21-1.17,0-.78.64-1.23,1.74-1.23.23,0,.48,0,.71.02v-.04c0-.58-.23-.91-.81-.91-.38,0-.74.11-1.04.31l-.34-.55c.45-.29.94-.43,1.54-.43.96,0,1.53.52,1.53,1.41Zm-.87.74c-.24-.02-.48-.02-.68-.02-.59,0-.94.23-.94.62,0,.35.21.58.6.58.51,0,1.01-.38,1.02-1.18Z"/>
    <path class="cls-2" d="m182.42,34.94v2.5h-.87v-2.33c0-.55-.25-.88-.7-.88-.64,0-1.07.35-1.07,1.15v2.06h-.87v-3.8c.15-.07.3-.12.45-.12.25,0,.4.21.4.54v.14c.31-.46.8-.68,1.36-.68.82,0,1.3.52,1.3,1.41Z"/>
    <path class="cls-2" d="m189.05,37.44h-.87v-3.18h-1.83v3.18h-.87v-3.18h-.6v-.66h.6v-.88c0-.8.48-1.27,1.31-1.27.35,0,.64.05.91.13l-.12.66c-.17-.06-.35-.09-.57-.09-.44,0-.68.28-.68.74v.71h2.69v3.84Zm-.94-5.02c0-.31.19-.48.51-.48s.51.18.51.48-.19.48-.51.48-.51-.18-.51-.48Z"/>
    <path class="cls-2" d="m190.55,37.44h-.9l1.4-1.95-1.25-1.83c.12-.07.34-.14.52-.14.26,0,.42.08.58.32l.71,1.03.91-1.35.8.14-1.26,1.82,1.37,1.9c-.15.1-.29.14-.45.14-.29,0-.5-.1-.65-.31l-.81-1.15-.97,1.39Z"/>
    <path class="cls-2" d="m195.75,32.42c0-.31.19-.48.51-.48s.51.18.51.48-.19.48-.51.48-.51-.18-.51-.48Zm.08,5.02h.87v-3.84h-.87v3.84Z"/>
    <path class="cls-2" d="m200.15,37.33c-.27.12-.57.18-.92.18-.78,0-1.24-.47-1.24-1.27v-1.99h-.6v-.66h.62v-.92c.15-.07.3-.12.45-.12.25,0,.4.18.4.46v.58h1.25v.66h-1.25v1.82c0,.46.21.74.61.74.2,0,.4-.05.57-.14l.12.65Z"/>
    <path class="cls-2" d="m206.27,35.44c0,1.3-.76,2.07-2.05,2.07-.2,0-.48,0-.76-.02v1.71h-.87v-5.56c.15-.07.3-.12.45-.12.25,0,.4.21.4.54v.15c.32-.47.83-.68,1.33-.68.93,0,1.5.71,1.5,1.92Zm-.88,0c0-.77-.32-1.22-.91-1.22-.51,0-1.01.35-1.01,1.15v1.47c.25,0,.49.01.69.01.77,0,1.24-.52,1.24-1.41Z"/>
    <path class="cls-2" d="m209.74,33.65l-.25.79c-.13-.08-.3-.14-.48-.14-.59,0-1,.42-1,1.38v1.76h-.87v-3.8c.15-.07.3-.12.45-.12.25,0,.4.21.4.54v.24c.28-.53.71-.78,1.21-.78.21,0,.4.05.55.12Z"/>
    <path class="cls-2" d="m210.11,35.52c0-1.25.72-2,1.95-2s1.95.75,1.95,2-.72,2-1.95,2-1.95-.74-1.95-2Zm3.02,0c0-.81-.4-1.3-1.07-1.3s-1.07.48-1.07,1.3.4,1.3,1.07,1.3,1.07-.48,1.07-1.3Z"/>
    <path class="cls-2" d="m218.38,34.94v2.5h-.87v-2.33c0-.55-.25-.88-.7-.88-.64,0-1.07.35-1.07,1.15v2.06h-.87v-3.8c.15-.07.3-.12.45-.12.25,0,.4.21.4.54v.14c.31-.46.8-.68,1.36-.68.82,0,1.3.52,1.3,1.41Z"/>
    <path class="cls-2" d="m221.82,37.33c-.27.12-.57.18-.92.18-.78,0-1.24-.47-1.24-1.27v-1.99h-.6v-.66h.62v-.92c.15-.07.3-.12.45-.12.25,0,.4.18.4.46v.58h1.25v.66h-1.25v1.82c0,.46.21.74.61.74.2,0,.4-.05.57-.14l.12.65Z"/>
    <path class="cls-2" d="m222.3,35.52c0-1.25.72-2,1.95-2s1.95.75,1.95,2-.72,2-1.95,2-1.95-.74-1.95-2Zm3.02,0c0-.81-.4-1.3-1.07-1.3s-1.07.48-1.07,1.3.4,1.3,1.07,1.3,1.07-.48,1.07-1.3Z"/>
    <path class="cls-2" d="m227.03,36.99c0-.33.21-.53.55-.53s.55.2.55.53-.21.53-.55.53-.55-.2-.55-.53Zm1.01-5.07h-.9l.04,3.88h.82l.04-3.88Z"/>
  </g>
  <path class="cls-1" d="m11.24,29.85c0-1.28.8-2.06,2.15-2.06s2.13.78,2.13,2.06-.8,2.06-2.13,2.06-2.15-.78-2.15-2.06Zm3.99-14.67h-3.64l.11,10.89h3.42l.11-10.89Z"/>
</svg>